<?xml version="1.0" encoding="UTF-8"?>
<!DOCTYPE svg PUBLIC "-//W3C//DTD SVG 1.1//EN" "http://www.w3.org/Graphics/SVG/1.1/DTD/svg11.dtd">
<!-- Creator: CorelDRAW -->
<svg xmlns="http://www.w3.org/2000/svg" xml:space="preserve" width="8.02962in" height="4.83895in" version="1.1" shape-rendering="geometricPrecision" text-rendering="geometricPrecision" image-rendering="optimizeQuality" fill-rule="evenodd" clip-rule="evenodd"
viewBox="0 0 17534.54 10566.98"
 xmlns:xlink="http://www.w3.org/1999/xlink"
 xmlns:xodm="http://www.corel.com/coreldraw/odm/2003">
 <g id="Layer_x0020_1">
  <metadata id="CorelCorpID_0Corel-Layer"/>
  <g id="_2011674226112">
   <path fill="#F0F2F5" fill-rule="nonzero" d="M15980.6 9805.53c-83.52,-229.05 -331.32,-356.5 -462.89,-397.53 131.54,-186.07 127.94,-457.04 -60.2,-622.78 107.15,-165.6 180.22,-415.27 44.28,-734.71 -83.28,-195.78 -231.93,-294.23 -370.6,-343.46 11.43,-40.85 17.74,-83.86 17.74,-128.38 0,-192.93 -114.83,-358.71 -279.66,-433.71 70.33,-159.17 124.95,-376.18 102.84,-651.39 -19.59,-244 -129.72,-428.68 -254.46,-562.47 41.71,-70.66 66.03,-152.8 66.03,-240.79 0,-235.75 -171.9,-430.89 -397.1,-468.16 9.49,-282.88 -58.63,-650.48 -398.38,-916.98 -631.43,-495.23 -1272.18,140.97 -1272.18,140.97 0,0 0,-168.82 -247.61,-397.86 -247.64,-229.05 -718.11,-195.18 -718.11,-195.18 0,0 -150.44,-808.98 -755.27,-891.3 -796,-108.34 -1091.08,668.59 -1091.08,668.59 0,0 -163.23,129.93 -384.73,279.72 -80.1,-281.06 -338.2,-487.09 -644.99,-487.09 -316.58,0 -581.26,219.47 -651.99,514.36 -224.11,-312.76 -644.42,-273.66 -644.42,-273.66 0,0 -238.33,-1082.62 -1163.83,-915.47 -908.86,164.12 -903.82,1157.63 -903.82,1157.63 0,0 -371.45,-12.38 -807.86,323.46 -436.44,335.84 -355.97,1074.03 -355.97,1074.03 0,0 -615.56,-388.58 -1012.01,212.06 -319.46,484.03 54.51,975.04 54.51,975.04 0,0 -348.7,18.56 -543.72,259.98 -194.99,241.46 -120.71,575.75 -120.71,575.75 0,0 -352.86,-269.3 -687.15,0 -334.29,269.27 -269.3,789.3 -269.3,789.3 0,0 -408.57,222.86 -403.93,681.6 4.64,458.76 267.72,621.51 267.72,621.51 0,0 -191.89,105.24 -235.24,321.92 -43.34,216.67 95.96,346.66 95.96,346.66 0,0 -185.7,27.88 -225.96,210.5 -40.24,182.61 92.87,232.14 92.87,232.14l14588.15 0c0,0 153.52,-394.04 33.08,-724.3z"/>
   <path fill="#F7C4A5" fill-rule="nonzero" d="M12869.15 4519.99l0 -179.22c0,0 -84.53,-86.68 -127.84,-238.33 -43.34,-151.67 -105.24,-442.63 -145.49,-569.52 -40.24,-126.93 -75.91,-249.62 34.06,-241.46 109.94,8.16 321.89,451.91 321.89,451.91 0,0 -52.62,-906.92 0,-999.79 52.62,-92.83 142.4,-86.65 173.34,105.24 30.97,191.93 52.62,581.94 52.62,581.94 0,0 46.43,-724.3 99.06,-770.74 52.62,-46.43 145.49,-40.24 157.86,74.28 12.37,114.52 0,767.64 0,767.64 0,0 97.15,-628.34 152.86,-650.03 55.72,-21.66 129.99,-21.66 120.72,167.15 -9.29,188.83 -25.96,538.59 -25.96,538.59 0,0 86.68,-424.07 154.77,-430.26 68.09,-6.19 77.4,111.43 77.4,201.2 0,89.78 -68.49,672.41 -142.4,863.58 -86.04,222.53 -184.53,325.01 -184.53,325.01l-45.16 248.16c0,0 -601.07,-163.63 -673.19,-245.37z"/>
   <path fill="#498FCC" fill-rule="nonzero" d="M12696 4893.8c0,0 28.99,-368.57 68.27,-388.49 39.27,-19.96 853.23,149.67 886.92,186.89 33.73,37.21 -60.69,432.97 -60.69,432.97 0,0 -804.85,-105.85 -894.5,-231.37z"/>
   <path fill="#004DAF" fill-rule="nonzero" d="M9367.41 3686.11l0 0c-926.06,418 -1521.34,1339.77 -1521.34,2355.78l0 2835.03 3906.28 0 0 -2377.17c0,0 109.19,294.23 253.37,613.14 118.77,262.72 331.63,547.6 833.06,464.02 501.44,-83.56 640.74,-1615.76 789.3,-2333.87 24.14,-116.59 -41.24,-130.71 -96.45,-162.57 -55.17,-31.87 -761.37,-266.04 -835.64,-266.04 -74.28,0 -182.2,-4.74 -169.82,168.62 12.37,173.33 -80.5,755.24 -80.5,755.24 0,0 -507.63,-1244.29 -656.19,-1467.15 -148.58,-222.86 -1149.92,-640.74 -1149.92,-640.74l-1272.17 55.71z"/>
   <path fill="#498FCC" fill-rule="nonzero" d="M8228.9 5418.71l143.37 458.88c0,0 65,1699.31 0,2042.88 -65,343.58 -143.37,687.18 -143.37,687.18l-223.35 -405.96c0,0 60.3,-244.06 153.14,-959.08 92.87,-715.03 70.21,-1823.91 70.21,-1823.91z"/>
   <path fill="#498FCC" fill-rule="nonzero" d="M9554.7 4382.57c0,0 371.42,383.82 829.51,86.65 458.13,-297.14 -181.06,-86.65 -181.06,-86.65l-287.87 0 -168.21 -72.34 -192.37 72.34z"/>
   <path fill="#F7C4A5" fill-rule="nonzero" d="M9367.41 2581.11l0 1104.99 135.91 334.96c72.54,178.79 225.25,312.79 411.96,361.5l287.87 0 436.44 -752.18 0 -1049.28 -1272.17 0z"/>
   <path fill="#56567A" fill-rule="nonzero" d="M8898.49 2054.89c0,0 -148.59,-600.5 -43.35,-1033.82 105.25,-433.35 433.35,-538.59 433.35,-538.59 0,0 259.98,-402.38 835.73,-303.36 575.72,99.06 940.98,510.54 1015.25,930.06 74.28,419.52 -74.27,989.05 -74.27,989.05l-2166.72 -43.34z"/>
   <path fill="#F7C4A5" fill-rule="nonzero" d="M10922.81 2444.9l-176.43 0 0 -563.34 176.43 0c155.56,0 281.67,126.11 281.67,281.67l0 0c0,155.56 -126.11,281.68 -281.67,281.68z"/>
   <path fill="#F7C4A5" fill-rule="nonzero" d="M9084.19 2444.9l176.43 0 0 -563.34 -176.43 0c-155.56,0 -281.67,126.11 -281.67,281.67l0 0c0,155.56 126.11,281.68 281.67,281.68z"/>
   <path fill="#F08E7D" fill-rule="nonzero" d="M10639.58 3062.93l0 -481.81 -1272.17 0 0 481.81c157.86,171.84 384.36,279.61 636.07,279.61l0.03 0c251.71,0 478.24,-107.77 636.07,-279.61z"/>
   <path fill="#F7C4A5" fill-rule="nonzero" d="M10867.09 1305.84l0 919.29c0,476.96 -386.64,863.61 -863.57,863.61l-0.03 0c-476.93,0 -863.57,-386.64 -863.57,-863.61l0 -765.64c0,-136.12 35.79,-270.96 109.88,-385.13 15.71,-24.2 32.78,-47.19 51.08,-67.24 97.5,-106.79 236.14,-186.83 236.14,-186.83 0,0 438.63,553.64 1330.07,485.55z"/>
   <polygon fill="#394071" fill-rule="nonzero" points="8228.9,10529.83 11752.35,10529.83 11752.35,8876.92 8228.9,8876.92 "/>
   <path fill="#7F5268" fill-rule="nonzero" d="M4620.76 7994.78c0,0 -194.98,-213.58 -213.57,-575.74 -18.56,-362.14 83.58,-529.29 352.87,-798.58 269.27,-269.3 -76.37,-685.78 157.84,-956.44 234.24,-270.66 52.53,-570.9 52.53,-570.9 0,0 -126.81,-1109.84 894.63,-1379.14 1021.47,-269.3 1337.17,617 1378.97,916.71 41.79,299.75 88.23,751.65 88.23,822.84 0,71.19 -46.43,319.86 -46.43,319.86 0,0 222.86,94.9 194.99,289.92 -27.84,194.99 46.43,436.45 250.73,557.15 204.27,120.72 536.93,547.88 -84.4,1235.02 -621.33,687.15 -3026.39,139.3 -3026.39,139.3z"/>
   <path fill="#F7C4A5" fill-rule="nonzero" d="M5536.96 6214.98l0 947.16 -1091.76 746.99c-386.7,264.59 -627.64,694.64 -651.33,1162.62l-73.83 1458.07 4837.96 0 -132.85 -1619.63c-37.34,-455.25 -279.97,-868.7 -659.21,-1123.29l-963 -646.44 0 -984.29 -1265.99 58.81z"/>
   <path fill="#F08E7D" fill-rule="nonzero" d="M5536.99 6561.62c178.85,179.77 420.94,304.91 625.24,304.91 245.88,0 481.45,-85.74 640.71,-260.26l0 -389.74 -1265.95 58.81 0 286.28z"/>
   <path fill="#00C48C" fill-rule="nonzero" d="M8425.16 8910.2c-37.34,-455.25 -279.97,-868.7 -659.21,-1123.29l-220.08 -147.7c-368.9,171.33 -843.1,341.24 -1309.35,364.86 -582.64,29.48 -1077.35,-191.41 -1382.18,-374.87l-409.14 279.94c-386.7,264.59 -627.64,694.64 -651.33,1162.62l-73.83 1458.07 4837.96 0 -132.85 -1619.63z"/>
   <path fill="#F7C4A5" fill-rule="nonzero" d="M4620.76 10529.83l-431.79 -1611.11c0,0 213.58,-738.22 246.1,-877.53 32.48,-139.28 -33.33,-283.21 -120.72,-213.55 -87.41,69.64 -181.1,264.63 -181.1,264.63 0,0 -38.67,-933.21 -91.3,-951.81 -52.62,-18.56 -114.53,-12.37 -139.3,108.34 -24.75,120.72 0,715.03 0,715.03 0,0 -207.39,-851.2 -256.89,-888.36 -49.53,-37.16 -148.01,23.48 -135.63,116.35 12.37,92.83 117.04,536.77 117.04,536.77 0,0 -119.31,-437.41 -174.51,-469.29 -55.18,-31.88 -122.62,29.76 -100.97,147.37 21.68,117.62 136.21,739.77 136.21,739.77 0,0 -247.65,-442.63 -318.82,-427.13 -71.19,15.47 -37.88,216.83 27.12,362.32 65,145.46 190.56,331.02 260.23,526.55 69.64,195.5 91.87,308.18 147.58,359.26 55.72,51.08 60.33,1562.4 60.33,1562.4l956.43 0z"/>
   <path fill="#394071" fill-rule="nonzero" d="M5535.42 5942.59l-235.24 0c-270.09,0 -489.06,-218.98 -489.06,-489.06l0 0c0,-270.09 218.98,-489.05 489.06,-489.05l235.24 0 0 978.11z"/>
   <path fill="none" fill-rule="nonzero" stroke="#394071" stroke-width="74.29" stroke-miterlimit="10" d="M5081.96 5807.05l0 375.42c0,342.75 277.88,620.6 620.6,620.6l184.22 0"/>
   <path fill="#56567A" fill-rule="nonzero" d="M5338.88 4791.13l0 0c-137.37,0 -253.19,102.55 -268.99,238.96 -12.07,104.42 -21.96,244.58 -21.96,423.43 0,200.23 27.78,348.43 59.05,451.79 34.58,114.22 139.88,192.05 259.23,192.05l71.73 0 -99.05 -1306.23z"/>
   <path fill="#394071" fill-rule="nonzero" d="M7084.62 5094.48c-92.65,-12.41 -170.73,-65.33 -233.6,-130.01l-94.51 0 0 978.11 221.65 0c265.81,0 493.28,-206.39 502.39,-472.05 0.09,-2.82 0.15,-5.61 0.21,-8.43 3.06,-177.21 -132.18,-326.65 -307.48,-352.97 -53.5,-8.04 -88.66,-14.65 -88.66,-14.65z"/>
   <path fill="#56567A" fill-rule="nonzero" d="M7084.62 5094.48c-55.26,-7.4 -105.27,-29.33 -150.04,-59.44l-80.56 1062.29 71.73 0c119.35,0 224.66,-77.8 259.23,-192.01 31.27,-103.39 59.06,-251.56 59.06,-451.79 0,-133.17 -5.49,-244.82 -13.28,-336.29 -84.31,-11.13 -146.13,-22.75 -146.13,-22.75z"/>
   <path fill="#F7C4A5" fill-rule="nonzero" d="M7084.62 5094.48c0,0 -12.37,718.09 -142.37,1043.1 -130.02,325.01 -445.72,482.87 -780.01,482.87 -334.29,0 -770.74,-334.29 -863.61,-696.46 -92.83,-362.14 -83.56,-984.28 0,-1300.01 83.59,-315.73 424.07,-643.81 801.7,-637.62 377.61,6.19 485.82,502.77 588.09,742.86 142.39,334.28 396.19,365.25 396.19,365.25z"/>
   <path fill="#56567A" fill-rule="nonzero" d="M6018.29 6929.97l-134.63 0c-66.66,0 -120.71,-54.04 -120.71,-120.71l0 0c0,-66.66 54.04,-120.72 120.71,-120.72l134.63 0c66.66,0 120.72,54.05 120.72,120.72l0 0c0,66.66 -54.05,120.71 -120.72,120.71z"/>
   <path fill="#F08E7D" fill-rule="nonzero" d="M6121.99 5205.91l0 425.59c0,0 112.19,-41.79 119.16,-104.46 6.98,-62.69 -78.16,-80.49 -119.16,-321.13z"/>
   <path fill="#FEFDFE" fill-rule="nonzero" d="M5605.08 5773.38l1044.64 0c0,0 -4.64,531.68 -522.31,531.68 -517.69,0 -522.33,-531.68 -522.33,-531.68z"/>
   <path fill="none" fill-rule="nonzero" stroke="#7F5268" stroke-width="74.29" stroke-linecap="round" stroke-miterlimit="10" d="M5841.86 4614.71c0,0 -146.77,-204.84 -385.37,0"/>
   <path fill="none" fill-rule="nonzero" stroke="#7F5268" stroke-width="74.29" stroke-linecap="round" stroke-miterlimit="10" d="M6375.78 4614.71c0,0 139.3,-256.37 427.16,-91.05"/>
   <path fill="#7F5268" fill-rule="nonzero" d="M5800.07 5061.19c0,60.26 -48.83,109.13 -109.09,109.13 -60.27,0 -109.13,-48.87 -109.13,-109.13 0,-60.23 48.86,-109.09 109.13,-109.09 60.26,0 109.09,48.86 109.09,109.09z"/>
   <path fill="#7F5268" fill-rule="nonzero" d="M6663.68 5061.19c0,60.26 -48.86,109.13 -109.13,109.13 -60.27,0 -109.09,-48.87 -109.09,-109.13 0,-60.23 48.82,-109.09 109.09,-109.09 60.27,0 109.13,48.86 109.13,109.09z"/>
   <path fill="none" fill-rule="nonzero" stroke="#56567A" stroke-width="74.29" stroke-linecap="round" stroke-miterlimit="10" d="M9780.65 1432.74c0,0 -117.66,-188.81 -390.01,-37.16"/>
   <path fill="none" fill-rule="nonzero" stroke="#56567A" stroke-width="74.29" stroke-linecap="round" stroke-miterlimit="10" d="M10249.58 1432.74c0,0 117.61,-188.81 390,-37.16"/>
   <path fill="#56567A" fill-rule="nonzero" d="M9695.51 1724.48c0,62.81 -50.92,113.73 -113.77,113.73 -62.81,0 -113.73,-50.92 -113.73,-113.73 0,-62.84 50.92,-113.76 113.73,-113.76 62.85,0 113.77,50.92 113.77,113.76z"/>
   <path fill="#56567A" fill-rule="nonzero" d="M10558.33 1724.48c0,62.81 -50.92,113.73 -113.76,113.73 -62.81,0 -113.74,-50.92 -113.74,-113.73 0,-62.84 50.93,-113.76 113.74,-113.76 62.84,0 113.76,50.92 113.76,113.76z"/>
   <path fill="#F08E7D" fill-rule="nonzero" d="M10022.08 1724.48l0 404.69c0,0 114.98,-4.75 119.41,-68.93 4.39,-64.15 -94.67,-167.85 -119.41,-335.75z"/>
   <path fill="#FEFDFE" fill-rule="nonzero" d="M9581.74 2251.45l862.82 0 0 65.39c0,238.24 -193.14,431.41 -431.38,431.41l-0.03 0c-238.24,0 -431.42,-193.17 -431.42,-431.41l0 -65.39z"/>
   <path fill="#F08E7D" fill-rule="nonzero" d="M12951.76 3743.37c0,0 220.71,37.15 283.7,198.11 62.99,160.96 87.74,247.61 87.74,247.61 0,0 40.24,-306.42 -71.19,-470.47 -111.43,-164.06 -311.42,-201.51 -311.42,-201.51 0,0 11.16,136.51 11.16,226.26z"/>
   <path fill="#F08E7D" fill-rule="nonzero" d="M4133.26 8092.27c0,0 -215.16,70.27 -308.76,273.94 -76.16,165.77 -20.9,283.21 -20.9,283.21 0,0 -129.2,-221.17 -54.92,-383.67 74.31,-162.48 376.81,-337.15 376.81,-337.15l7.76 163.66z"/>
   <path fill="#FEFDFE" fill-rule="nonzero" d="M10099.44 4229.34l325.02 444.18 522 -907.34c0,0 -17.47,-135.79 -79.37,-223.99 -61.9,-88.23 -227.5,-119.17 -227.5,-119.17l0 114.53 -540.14 691.79z"/>
   <polygon fill="#DFDEE3" fill-rule="nonzero" points="9915.28,4227.79 9915.28,4382.57 9781.5,4335.22 "/>
   <polygon fill="#DFDEE3" fill-rule="nonzero" points="10099.44,4229.34 10099.44,4382.57 10203.15,4382.57 "/>
   <path fill="#FEFDFE" fill-rule="nonzero" d="M9915.28 4227.79l-547.87 -541.69 0 -263.08c0,0 -227.5,55.72 -283.22,207.37 -55.71,151.67 -61.9,188.83 55.72,424.07 117.61,235.24 340.57,619.06 340.57,619.06l434.8 -445.73z"/>
   <path fill="#2D3B43" fill-rule="nonzero" d="M5001.49 10220.3l151.66 0 0 -612.87 -151.66 0c-84.63,0 -161.27,34.3 -216.71,89.74 -55.44,55.44 -89.74,132.06 -89.74,216.7 0,84.63 34.3,161.25 89.74,216.7 55.44,55.44 132.07,89.74 216.71,89.74zm225.95 148.58l-225.95 0c-125.62,0 -239.4,-50.93 -321.75,-133.28 -82.34,-82.35 -133.28,-196.11 -133.28,-321.74 0,-125.62 50.94,-239.39 133.28,-321.74 82.35,-82.35 196.12,-133.28 321.75,-133.28l300.24 0 0 910.03 -74.29 0z"/>
   <path fill="#2D3B43" fill-rule="nonzero" d="M6022.93 10529.83l-841.92 0c-56.41,0 -102.15,-45.74 -102.15,-102.15l0 -1058.6c0,-56.42 45.74,-102.15 102.15,-102.15l841.92 0c56.42,0 102.15,45.73 102.15,102.15l0 1058.6c0,56.41 -45.74,102.15 -102.15,102.15z"/>
   <path fill="#2D3B43" fill-rule="nonzero" d="M13312.05 10368.88l-300.25 0 0 -910.03 300.25 0c125.62,0 239.39,50.93 321.74,133.28 82.34,82.35 133.28,196.11 133.28,321.74 0,125.62 -50.94,239.39 -133.28,321.74 -82.35,82.34 -196.11,133.28 -321.74,133.28zm-151.67 -148.58l151.67 0c84.63,0 161.25,-34.3 216.7,-89.74 55.44,-55.44 89.74,-132.06 89.74,-216.7 0,-84.63 -34.3,-161.25 -89.74,-216.7 -55.44,-55.44 -132.06,-89.74 -216.7,-89.74l-151.67 0 0 612.87z"/>
   <path fill="#2D3B43" fill-rule="nonzero" d="M12290.6 10529.83l841.92 0c56.42,0 102.15,-45.74 102.15,-102.15l0 -1058.6c0,-56.42 -45.74,-102.15 -102.15,-102.15l-841.92 0c-56.41,0 -102.15,45.73 -102.15,102.15l0 1058.6c0,56.41 45.74,102.15 102.15,102.15z"/>
   <path fill="#FEFDFE" fill-rule="nonzero" d="M8408.14 10529.83l-1507.69 0c-156.41,0 -283.21,-126.82 -283.21,-283.22l0 0c0,-48.71 39.49,-88.23 88.2,-88.23l1702.7 0 0 371.46z"/>
   <path fill="#D3CFD4" fill-rule="nonzero" d="M12460.12 8343.76l-1227.22 2186.07 -323.89 -181.83 1409.08 -2509.96 0 0c178.85,100.42 242.45,326.83 142.03,505.71z"/>
   <polygon fill="#D3CFD4" fill-rule="nonzero" points="9495.16,7838.04 12318.09,7838.04 11232.9,10529.83 8409.99,10529.83 "/>
   <path fill="#FEFDFE" fill-rule="nonzero" d="M9637.22 8343.76l-1227.23 2186.07 -323.89 -181.83 1409.06 -2509.96 0 0c178.88,100.42 242.48,326.83 142.06,505.71z"/>
   <path fill="#FEFDFE" fill-rule="nonzero" d="M10906.57 9266.93c-62.57,174.36 -232.81,315.73 -380.24,315.73 -147.47,0 -216.28,-141.37 -153.75,-315.73 62.57,-174.37 232.81,-315.7 380.24,-315.7 147.46,0 216.28,141.33 153.74,315.7z"/>
   <line fill="none" fill-rule="nonzero" stroke="#56567A" stroke-width="74.29" stroke-linecap="round" stroke-miterlimit="10" x1="737.43" y1="10529.83" x2="16548.22" y2= "10529.83" />
   <path fill="#498FCC" fill-rule="nonzero" d="M12080.45 6202.58c-55.71,359.07 55.72,643.83 92.84,464.31 37.15,-179.55 68.12,-278.57 144.8,-482.87 76.64,-204.31 127.59,-445.73 127.59,-445.73 0,0 -55.62,-136.36 -135.27,-326.47 -62.69,167.67 -188.71,524.92 -229.96,790.76z"/>
   <path fill="#E5E2E5" fill-rule="nonzero" d="M15417.5 8762.46l-1702.47 -508.23c-60.59,-18.07 -95.05,-81.89 -76.97,-142.48l334.69 -1121.14c18.11,-60.59 81.89,-95.08 142.48,-76.97l1702.49 508.2c60.6,18.11 95.05,81.89 76.98,142.52l-334.69 1121.14c-18.11,60.59 -81.89,95.08 -142.52,76.97z"/>
   <path fill="#FEFDFE" fill-rule="nonzero" d="M15817.73 7421.83l-1702.49 -508.2c-60.59,-18.11 -124.38,16.38 -142.48,76.97l710.77 920.54c26.3,34.06 71.43,47.53 112.08,33.45l1099.11 -380.24c18.07,-60.63 -16.38,-124.41 -76.98,-142.52z"/>
   <path fill="#00C48C" fill-rule="nonzero" d="M1989.77 7731.68l-1423.85 0c-41,0 -74.27,33.24 -74.27,74.28l0 841.91c0,41.04 33.27,74.31 74.27,74.31l1011.68 0c30.93,114.68 106.12,214.5 211.76,275.49l0 -275.49 200.41 0c41.04,0 74.28,-33.27 74.28,-74.31l0 -841.91c0,-41.04 -33.25,-74.28 -74.28,-74.28z"/>
   <path fill="#FEFEFE" fill-rule="nonzero" d="M866.93 8204.49c0,44.85 -36.36,81.25 -81.25,81.25 -44.85,0 -81.25,-36.39 -81.25,-81.25 0,-44.9 36.4,-81.25 81.25,-81.25 44.9,0 81.25,36.36 81.25,81.25z"/>
   <path fill="#FEFEFE" fill-rule="nonzero" d="M1195.04 8204.49c0,44.85 -36.37,81.25 -81.25,81.25 -44.86,0 -81.25,-36.39 -81.25,-81.25 0,-44.9 36.39,-81.25 81.25,-81.25 44.89,0 81.25,36.36 81.25,81.25z"/>
   <path fill="#FEFEFE" fill-rule="nonzero" d="M1523.14 8204.49c0,44.85 -36.36,81.25 -81.25,81.25 -44.85,0 -81.25,-36.39 -81.25,-81.25 0,-44.9 36.4,-81.25 81.25,-81.25 44.9,0 81.25,36.36 81.25,81.25z"/>
   <path fill="#FEFEFE" fill-rule="nonzero" d="M1851.25 8204.49c0,44.85 -36.37,81.25 -81.25,81.25 -44.89,0 -81.25,-36.39 -81.25,-81.25 0,-44.9 36.37,-81.25 81.25,-81.25 44.89,0 81.25,36.36 81.25,81.25z"/>
   <path fill="#004DAF" fill-rule="nonzero" d="M16738.66 3981.73l-1423.85 0c-41.04,0 -74.28,33.24 -74.28,74.27l0 841.92c0,41.04 33.25,74.27 74.28,74.27l1011.67 0c30.94,114.7 106.13,214.51 211.74,275.48l0 -275.48 200.45 0c41,0 74.27,-33.24 74.27,-74.27l0 -841.92c0,-41.04 -33.27,-74.27 -74.27,-74.27z"/>
   <path fill="#FEFEFE" fill-rule="nonzero" d="M15615.83 4454.54c0,44.86 -36.37,81.25 -81.25,81.25 -44.86,0 -81.25,-36.39 -81.25,-81.25 0,-44.89 36.39,-81.25 81.25,-81.25 44.89,0 81.25,36.37 81.25,81.25z"/>
   <path fill="#FEFEFE" fill-rule="nonzero" d="M15943.93 4454.54c0,44.86 -36.39,81.25 -81.25,81.25 -44.89,0 -81.25,-36.39 -81.25,-81.25 0,-44.89 36.37,-81.25 81.25,-81.25 44.86,0 81.25,36.37 81.25,81.25z"/>
   <path fill="#FEFEFE" fill-rule="nonzero" d="M16272.04 4454.54c0,44.86 -36.4,81.25 -81.25,81.25 -44.89,0 -81.25,-36.39 -81.25,-81.25 0,-44.89 36.37,-81.25 81.25,-81.25 44.85,0 81.25,36.37 81.25,81.25z"/>
   <path fill="#FEFEFE" fill-rule="nonzero" d="M16600.14 4454.54c0,44.86 -36.39,81.25 -81.25,81.25 -44.89,0 -81.25,-36.39 -81.25,-81.25 0,-44.89 36.37,-81.25 81.25,-81.25 44.86,0 81.25,36.37 81.25,81.25z"/>
   <path fill="#004DAF" fill-rule="nonzero" d="M5951.75 799.76l1423.83 0c41.04,0 74.31,33.24 74.31,74.27l0 841.92c0,41.04 -33.27,74.27 -74.31,74.27l-220.68 0c-30.94,114.71 -106.13,214.52 -211.74,275.49l0 -275.49 -991.41 0c-41.04,0 -74.27,-33.24 -74.27,-74.27l0 -841.92c0,-41.04 33.24,-74.27 74.27,-74.27z"/>
   <path fill="#FEFEFE" fill-rule="nonzero" d="M7074.58 1272.57c0,44.86 36.37,81.25 81.23,81.25 44.89,0 81.25,-36.39 81.25,-81.25 0,-44.89 -36.37,-81.25 -81.25,-81.25 -44.86,0 -81.23,36.37 -81.23,81.25z"/>
   <path fill="#FEFEFE" fill-rule="nonzero" d="M6746.48 1272.57c0,44.86 36.37,81.25 81.25,81.25 44.85,0 81.25,-36.39 81.25,-81.25 0,-44.89 -36.4,-81.25 -81.25,-81.25 -44.89,0 -81.25,36.37 -81.25,81.25z"/>
   <path fill="#FEFEFE" fill-rule="nonzero" d="M6418.37 1272.57c0,44.86 36.37,81.25 81.25,81.25 44.86,0 81.25,-36.39 81.25,-81.25 0,-44.89 -36.39,-81.25 -81.25,-81.25 -44.89,0 -81.25,36.37 -81.25,81.25z"/>
   <path fill="#FEFEFE" fill-rule="nonzero" d="M6090.27 1272.57c0,44.86 36.37,81.25 81.25,81.25 44.85,0 81.25,-36.39 81.25,-81.25 0,-44.89 -36.4,-81.25 -81.25,-81.25 -44.89,0 -81.25,36.37 -81.25,81.25z"/>
   <path fill="#E5E2E5" fill-rule="nonzero" d="M4110.39 3681.44l-1687.21 318.98c-38,7.19 -74.64,-17.81 -81.83,-55.81l-205.85 -1088.84c-7.19,-38 17.81,-74.64 55.81,-81.83l1687.21 -318.97c38,-7.19 74.64,17.81 81.83,55.81l205.88 1088.83c7.15,38 -17.81,74.64 -55.84,81.83z"/>
   <polygon fill="#FEFDFE" fill-rule="nonzero" points="3943.79,2973.06 3598.12,3038.39 3524.63,2649.74 3870.33,2584.39 "/>
   <polygon fill="#8F8697" fill-rule="nonzero" points="3153.4,3541.07 2437.13,3676.46 2425.94,3617.17 3142.18,3481.75 "/>
   <polygon fill="#8F8697" fill-rule="nonzero" points="3182.88,3696.96 2466.61,3832.39 2455.39,3773.06 3171.66,3637.64 "/>
   <polygon fill="#8F8697" fill-rule="nonzero" points="2399.37,3085.1 1876.25,3184 1851.5,3053.22 2374.62,2954.31 "/>
   <polygon fill="#8F8697" fill-rule="nonzero" points="2440.19,3301.05 2035.69,3377.5 2010.94,3246.72 2415.47,3170.26 "/>
   <path fill="#00C48C" fill-rule="nonzero" d="M13703.97 1019.8c-20.14,94.02 4.82,187.71 78.12,203.42 79.71,17.07 140.15,-54.99 160.62,-150.65 19.45,-90.84 -9.12,-175.3 -88.83,-192.38 -70.13,-15.01 -131.14,51.93 -149.92,139.61zm463.86 356.03c55.81,11.95 135.93,-74.25 166.32,-216.09 62.12,-290.08 -62.51,-556.82 -373.3,-623.36 -277.36,-59.39 -554.55,129.62 -616.66,419.73 -61.08,285.28 103.25,545.5 377.36,604.22 89.29,19.1 210.52,13.4 314.82,-37.61l51.93 154.47c-108.52,55.14 -276.22,67.55 -400.53,40.95 -372.94,-79.86 -596.58,-421.16 -515.7,-798.88 82.26,-384.16 448,-620.9 822.57,-540.68 372.96,79.85 594.01,425.58 511.05,812.89 -50.17,234.3 -212.04,359.68 -388.95,321.8 -95.63,-20.47 -156.69,-70.21 -162.84,-158.23l-0.82 -11.82c-76.71,70.24 -161.26,83.8 -234.6,68.08 -165.78,-35.48 -299.21,-214.07 -252.1,-434.05 42.64,-199.2 197.11,-344.51 385.19,-304.24 114.77,24.57 165.2,123.72 165.2,123.72l13.99 -65.36 215.18 46.1 -110.91 518c-11.62,54.2 4.09,74.21 32.79,80.37z"/>
   <path fill="#C7DDF1" fill-rule="nonzero" d="M2010.94 5853.25c0,44.1 -35.73,79.85 -79.84,79.85 -44.1,0 -79.85,-35.76 -79.85,-79.85 0,-44.1 35.76,-79.86 79.85,-79.86 44.1,0 79.84,35.76 79.84,79.86z"/>
   <path fill="#C7DDF1" fill-rule="nonzero" d="M4405.07 1327.22c0,75.04 -60.84,135.91 -135.91,135.91 -75.04,0 -135.91,-60.87 -135.91,-135.91 0,-75.06 60.87,-135.91 135.91,-135.91 75.06,0 135.91,60.84 135.91,135.91z"/>
   <path fill="#C7DDF1" fill-rule="nonzero" d="M14846.18 2600.73c0,55.72 -45.19,100.91 -100.91,100.91 -55.72,0 -100.91,-45.19 -100.91,-100.91 0,-55.71 45.19,-100.87 100.91,-100.87 55.72,0 100.91,45.16 100.91,100.87z"/>
   <path fill="#C7DDF1" fill-rule="nonzero" d="M16601.09 8591.37c0,45.13 -36.61,81.71 -81.74,81.71 -45.13,0 -81.71,-36.58 -81.71,-81.71 0,-45.13 36.58,-81.74 81.71,-81.74 45.14,0 81.74,36.61 81.74,81.74z"/>
   <path fill="#C7DDF1" fill-rule="nonzero" d="M8740.89 81.74c0,45.14 -36.61,81.71 -81.74,81.71 -45.13,0 -81.71,-36.57 -81.71,-81.71 0,-45.13 36.58,-81.74 81.71,-81.74 45.13,0 81.74,36.61 81.74,81.74z"/>
   <path fill="#C7DDF1" fill-rule="nonzero" d="M169.76 9497.77c0,46.88 -38,84.89 -84.87,84.89 -46.88,0 -84.88,-38.01 -84.88,-84.89 0,-46.86 38,-84.86 84.88,-84.86 46.87,0 84.87,38 84.87,84.86z"/>
   <path fill="#C7DDF1" fill-rule="nonzero" d="M17534.54 5825.7c0,59.12 -47.92,107 -107,107 -59.12,0 -107,-47.89 -107,-107 0,-59.08 47.89,-107 107,-107 59.08,0 107,47.92 107,107z"/>
  </g>
 </g>
</svg>
